<?xml version="1.0" encoding="UTF-8" standalone="no"?>
<svg
   xmlns:dc="http://purl.org/dc/elements/1.1/"
   xmlns:cc="http://creativecommons.org/ns#"
   xmlns:rdf="http://www.w3.org/1999/02/22-rdf-syntax-ns#"
   xmlns:svg="http://www.w3.org/2000/svg"
   xmlns="http://www.w3.org/2000/svg"
   xmlns:sodipodi="http://sodipodi.sourceforge.net/DTD/sodipodi-0.dtd"
   xmlns:inkscape="http://www.inkscape.org/namespaces/inkscape"
   viewBox="0 0 16 16"
   version="1.1"
   id="svg8"
   sodipodi:docname="battery-level-30-charging-symbolic.svg"
   inkscape:version="1.0.2 (e86c870879, 2021-01-15)">
  <metadata
     id="metadata14">
    <rdf:RDF>
      <cc:Work
         rdf:about="">
        <dc:format>image/svg+xml</dc:format>
        <dc:type
           rdf:resource="http://purl.org/dc/dcmitype/StillImage" />
      </cc:Work>
    </rdf:RDF>
  </metadata>
  <defs
     id="defs12" />
  <sodipodi:namedview
     pagecolor="#ffffff"
     bordercolor="#666666"
     borderopacity="1"
     objecttolerance="10"
     gridtolerance="10"
     guidetolerance="10"
     inkscape:pageopacity="0"
     inkscape:pageshadow="2"
     inkscape:window-width="1366"
     inkscape:window-height="738"
     id="namedview10"
     showgrid="false"
     inkscape:zoom="36.75"
     inkscape:cx="8"
     inkscape:cy="7.9863946"
     inkscape:window-x="0"
     inkscape:window-y="0"
     inkscape:window-maximized="1"
     inkscape:current-layer="svg8" />
  <g
     fill="#bebebe"
     id="g6">
    <path
       d="m5 0v2h-3v14h12v-14h-3v-2zm5 3l-1 5h3l-6 7 1-5h-3z"
       opacity=".4"
       id="path2" />
    <path
       d="m2 11v5h12v-5h-4.572l-3.428 4 .801-4z"
       id="path4" />
  </g>
  <path
     style="fill:#e09c00;stroke-width:0.0272109;fill-opacity:1"
     d="m 2.0136054,13.496599 v -2.489796 h 2.3809524 c 1.8869211,0 2.3808357,0.0071 2.3803902,0.03401 -3.102e-4,0.01871 -0.1773662,0.91512 -0.3934598,1.992028 -0.2160936,1.076908 -0.3888675,1.962044 -0.3839423,1.966969 0.00493,0.0049 0.7794925,-0.888426 1.7212606,-1.985225 l 1.7123056,-1.99418 2.2776409,-0.007 2.277642,-0.007 v 2.489951 2.489952 H 8 2.0136054 Z"
     id="path839" />
</svg>
