<?xml version="1.0" encoding="UTF-8" standalone="no"?>
<svg
   xmlns:dc="http://purl.org/dc/elements/1.1/"
   xmlns:cc="http://creativecommons.org/ns#"
   xmlns:rdf="http://www.w3.org/1999/02/22-rdf-syntax-ns#"
   xmlns:svg="http://www.w3.org/2000/svg"
   xmlns="http://www.w3.org/2000/svg"
   xmlns:sodipodi="http://sodipodi.sourceforge.net/DTD/sodipodi-0.dtd"
   xmlns:inkscape="http://www.inkscape.org/namespaces/inkscape"
   viewBox="0 0 16 16"
   version="1.1"
   id="svg8"
   sodipodi:docname="battery-level-80-charging-symbolic.svg"
   inkscape:version="1.0.2 (e86c870879, 2021-01-15)">
  <metadata
     id="metadata14">
    <rdf:RDF>
      <cc:Work
         rdf:about="">
        <dc:format>image/svg+xml</dc:format>
        <dc:type
           rdf:resource="http://purl.org/dc/dcmitype/StillImage" />
      </cc:Work>
    </rdf:RDF>
  </metadata>
  <defs
     id="defs12" />
  <sodipodi:namedview
     pagecolor="#ffffff"
     bordercolor="#666666"
     borderopacity="1"
     objecttolerance="10"
     gridtolerance="10"
     guidetolerance="10"
     inkscape:pageopacity="0"
     inkscape:pageshadow="2"
     inkscape:window-width="1366"
     inkscape:window-height="738"
     id="namedview10"
     showgrid="false"
     inkscape:zoom="36.75"
     inkscape:cx="8"
     inkscape:cy="7.9863946"
     inkscape:window-x="0"
     inkscape:window-y="0"
     inkscape:window-maximized="1"
     inkscape:current-layer="svg8" />
  <g
     fill="#bebebe"
     id="g6">
    <path
       d="m5 0v2h-3v14h12v-14h-3v-2zm5 3l-1 5h3l-6 7 1-5h-3z"
       opacity=".4"
       id="path2" />
    <path
       d="m2 3v13h12v-13h-4l-1 5h3l-6 7 1-5h-3l6-7z"
       id="path4" />
  </g>
  <path
     style="fill:#31e900;stroke-width:0.0272109;fill-opacity:1"
     d="M 2.0136054,9.4965986 V 3.0068027 h 3.9727892 c 2.185034,0 3.9727891,0.00511 3.9727891,0.011361 0,0.00625 -1.3416912,1.5766566 -2.9815358,3.4897959 l -2.9815357,3.4784351 1.4944742,0.00703 1.4944743,0.00703 -0.499015,2.494421 C 6.2115875,13.866809 5.9915921,14.99386 5.9971671,14.999435 6.008594,15.010861 12,8.0270389 12,8.0022922 12,7.9935486 11.32834,7.9863946 10.507422,7.9863946 H 9.0148446 L 9.5000424,5.5578231 C 9.7669012,4.2221088 9.9918558,3.1017007 9.9999412,3.0680272 l 0.014701,-0.061224 h 1.985876 1.985877 V 9.4965986 15.986395 H 8 2.0136054 Z"
     id="path839" />
</svg>
