<?xml version="1.0" encoding="UTF-8" standalone="no"?>
<svg
   xmlns:dc="http://purl.org/dc/elements/1.1/"
   xmlns:cc="http://creativecommons.org/ns#"
   xmlns:rdf="http://www.w3.org/1999/02/22-rdf-syntax-ns#"
   xmlns:svg="http://www.w3.org/2000/svg"
   xmlns="http://www.w3.org/2000/svg"
   xmlns:sodipodi="http://sodipodi.sourceforge.net/DTD/sodipodi-0.dtd"
   xmlns:inkscape="http://www.inkscape.org/namespaces/inkscape"
   viewBox="0 0 16 16"
   version="1.1"
   id="svg8"
   sodipodi:docname="battery-level-70-charging-symbolic.svg"
   inkscape:version="1.0.2 (e86c870879, 2021-01-15)">
  <metadata
     id="metadata14">
    <rdf:RDF>
      <cc:Work
         rdf:about="">
        <dc:format>image/svg+xml</dc:format>
        <dc:type
           rdf:resource="http://purl.org/dc/dcmitype/StillImage" />
      </cc:Work>
    </rdf:RDF>
  </metadata>
  <defs
     id="defs12" />
  <sodipodi:namedview
     pagecolor="#ffffff"
     bordercolor="#666666"
     borderopacity="1"
     objecttolerance="10"
     gridtolerance="10"
     guidetolerance="10"
     inkscape:pageopacity="0"
     inkscape:pageshadow="2"
     inkscape:window-width="1366"
     inkscape:window-height="738"
     id="namedview10"
     showgrid="false"
     inkscape:zoom="36.75"
     inkscape:cx="8"
     inkscape:cy="7.9863946"
     inkscape:window-x="0"
     inkscape:window-y="0"
     inkscape:window-maximized="1"
     inkscape:current-layer="svg8" />
  <g
     fill="#bebebe"
     id="g6">
    <path
       d="m5 0v2h-3v14h12v-14h-3v-2zm5 3l-1 5h3l-6 7 1-5h-3z"
       opacity=".4"
       id="path2" />
    <path
       d="m2 5v11h12v-11h-4.4l-.6 3h3l-6 7 1-5h-3l4.285-5z"
       id="path4" />
  </g>
  <path
     style="fill:#59e900;stroke-width:0.0272109;fill-opacity:1"
     d="M 2.0136054,10.503401 V 5.0204082 H 5.1319439 8.2502827 L 8.1147785,5.1768707 c -0.074527,0.086054 -1.031819,1.2034014 -2.1273148,2.4829932 l -1.9918108,2.3265307 1.4947038,0.00703 1.494704,0.00703 -0.499015,2.494421 C 6.2115875,13.866809 5.9915921,14.99386 5.9971671,14.999435 6.008594,15.010861 12,8.0270389 12,8.0022922 12,7.9935486 11.328318,7.9863946 10.507374,7.9863946 H 9.0147472 L 9.2826928,6.6462585 C 9.4300629,5.9091837 9.5638373,5.2418367 9.5799695,5.1632653 l 0.029331,-0.1428571 h 2.1885475 2.188547 v 5.4829928 5.482994 H 8 2.0136054 Z"
     id="path839" />
</svg>
