<?xml version="1.0" encoding="UTF-8" standalone="no"?>
<svg
   xmlns:dc="http://purl.org/dc/elements/1.1/"
   xmlns:cc="http://creativecommons.org/ns#"
   xmlns:rdf="http://www.w3.org/1999/02/22-rdf-syntax-ns#"
   xmlns:svg="http://www.w3.org/2000/svg"
   xmlns="http://www.w3.org/2000/svg"
   xmlns:sodipodi="http://sodipodi.sourceforge.net/DTD/sodipodi-0.dtd"
   xmlns:inkscape="http://www.inkscape.org/namespaces/inkscape"
   viewBox="0 0 16 16"
   version="1.1"
   id="svg4"
   sodipodi:docname="battery-full-charging-symbolic.svg"
   inkscape:version="1.0.2 (e86c870879, 2021-01-15)">
  <metadata
     id="metadata10">
    <rdf:RDF>
      <cc:Work
         rdf:about="">
        <dc:format>image/svg+xml</dc:format>
        <dc:type
           rdf:resource="http://purl.org/dc/dcmitype/StillImage" />
      </cc:Work>
    </rdf:RDF>
  </metadata>
  <defs
     id="defs8" />
  <sodipodi:namedview
     pagecolor="#ffffff"
     bordercolor="#666666"
     borderopacity="1"
     objecttolerance="10"
     gridtolerance="10"
     guidetolerance="10"
     inkscape:pageopacity="0"
     inkscape:pageshadow="2"
     inkscape:window-width="1366"
     inkscape:window-height="738"
     id="namedview6"
     showgrid="false"
     inkscape:zoom="36.75"
     inkscape:cx="8"
     inkscape:cy="7.9863946"
     inkscape:window-x="0"
     inkscape:window-y="0"
     inkscape:window-maximized="1"
     inkscape:current-layer="svg4" />
  <path
     d="m 5 0 l 0 2 l -3 0 l 0 14 l 12 0 l 0 -14 l -3 0 l 0 -2 l -6 0 z m 5 3 l -1 5 l 3 0 l -6 7 l 1 -5 l -3 0 l 6 -7 z"
     style="fill:#bebebe"
     id="path2" />
  <path
     style="fill:#00cb00;stroke-width:0.0272109"
     d="M 2.0136054,8.9931973 V 2 H 3.5102041 5.0068027 V 1.0068027 0.01360544 H 8 10.993197 V 1.0068027 2 h 1.496599 1.496599 V 8.9931973 15.986395 H 8 2.0136054 Z M 9.0239627,11.494941 C 10.6533,9.5940487 11.990476,8.026988 11.995465,8.0125839 c 0.0057,-0.016571 -0.539936,-0.026189 -1.485762,-0.026189 H 9.0148713 L 9.5117037,5.5034014 C 9.7849616,4.1377551 10.00335,3.015102 9.997012,3.0086169 9.9816599,2.9929088 10.2907,2.6353393 6.9647869,6.5170068 l -2.9726604,3.4693878 1.4964686,0.00703 1.4964688,0.00703 -0.4854337,2.428343 c -0.2669886,1.335589 -0.4932816,2.464837 -0.5028735,2.509442 -0.015092,0.07018 -0.011906,0.0765 0.023667,0.04698 0.022609,-0.01876 1.3742014,-1.589391 3.0035388,-3.490283 z"
     id="path835" />
</svg>
