<?xml version="1.0" encoding="UTF-8" standalone="no"?>
<svg
   xmlns:dc="http://purl.org/dc/elements/1.1/"
   xmlns:cc="http://creativecommons.org/ns#"
   xmlns:rdf="http://www.w3.org/1999/02/22-rdf-syntax-ns#"
   xmlns:svg="http://www.w3.org/2000/svg"
   xmlns="http://www.w3.org/2000/svg"
   xmlns:sodipodi="http://sodipodi.sourceforge.net/DTD/sodipodi-0.dtd"
   xmlns:inkscape="http://www.inkscape.org/namespaces/inkscape"
   viewBox="0 0 16 16"
   version="1.1"
   id="svg8"
   sodipodi:docname="battery-level-50-charging-symbolic.svg"
   inkscape:version="1.0.2 (e86c870879, 2021-01-15)">
  <metadata
     id="metadata14">
    <rdf:RDF>
      <cc:Work
         rdf:about="">
        <dc:format>image/svg+xml</dc:format>
        <dc:type
           rdf:resource="http://purl.org/dc/dcmitype/StillImage" />
      </cc:Work>
    </rdf:RDF>
  </metadata>
  <defs
     id="defs12" />
  <sodipodi:namedview
     pagecolor="#ffffff"
     bordercolor="#666666"
     borderopacity="1"
     objecttolerance="10"
     gridtolerance="10"
     guidetolerance="10"
     inkscape:pageopacity="0"
     inkscape:pageshadow="2"
     inkscape:window-width="1366"
     inkscape:window-height="738"
     id="namedview10"
     showgrid="false"
     inkscape:zoom="36.75"
     inkscape:cx="8"
     inkscape:cy="7.9863946"
     inkscape:window-x="0"
     inkscape:window-y="0"
     inkscape:window-maximized="1"
     inkscape:current-layer="svg8" />
  <g
     fill="#bebebe"
     id="g6">
    <path
       opacity=".4"
       d="m5 0v2h-3v14h12v-14h-3v-2zm5 3l-1 5h3l-6 7 1-5h-3z"
       id="path2" />
    <path
       d="m2 8v8h12v-8h-2l-6 7 1-5h-3l1.715-2z"
       id="path4" />
  </g>
  <path
     style="fill:#c1e500;stroke-width:0.0272109;fill-opacity:1"
     d="M 2.0136054,12 V 8.0136054 h 1.8231293 c 1.0027211,0 1.8231292,0.00635 1.8231292,0.014121 0,0.00777 -0.3753561,0.4516442 -0.8341251,0.9863945 l -0.834125,0.9722734 1.4967233,0.00703 1.4967236,0.00703 -0.499015,2.494421 c -0.2744582,1.371931 -0.4944536,2.498982 -0.4888786,2.504557 0.00557,0.0056 1.3593771,-1.563956 3.0084492,-3.487847 L 12.00393,8.0136054 h 0.991232 0.991233 V 12 15.986395 H 8 2.0136054 Z"
     id="path839" />
</svg>
