<?xml version="1.0" encoding="UTF-8" standalone="no"?>
<svg
   xmlns:dc="http://purl.org/dc/elements/1.1/"
   xmlns:cc="http://creativecommons.org/ns#"
   xmlns:rdf="http://www.w3.org/1999/02/22-rdf-syntax-ns#"
   xmlns:svg="http://www.w3.org/2000/svg"
   xmlns="http://www.w3.org/2000/svg"
   xmlns:sodipodi="http://sodipodi.sourceforge.net/DTD/sodipodi-0.dtd"
   xmlns:inkscape="http://www.inkscape.org/namespaces/inkscape"
   viewBox="0 0 16 16"
   version="1.1"
   id="svg8"
   sodipodi:docname="battery-level-60-charging-symbolic.svg"
   inkscape:version="1.0.2 (e86c870879, 2021-01-15)">
  <metadata
     id="metadata14">
    <rdf:RDF>
      <cc:Work
         rdf:about="">
        <dc:format>image/svg+xml</dc:format>
        <dc:type
           rdf:resource="http://purl.org/dc/dcmitype/StillImage" />
      </cc:Work>
    </rdf:RDF>
  </metadata>
  <defs
     id="defs12" />
  <sodipodi:namedview
     pagecolor="#ffffff"
     bordercolor="#666666"
     borderopacity="1"
     objecttolerance="10"
     gridtolerance="10"
     guidetolerance="10"
     inkscape:pageopacity="0"
     inkscape:pageshadow="2"
     inkscape:window-width="1366"
     inkscape:window-height="738"
     id="namedview10"
     showgrid="false"
     inkscape:zoom="36.75"
     inkscape:cx="8"
     inkscape:cy="7.9863946"
     inkscape:window-x="0"
     inkscape:window-y="0"
     inkscape:window-maximized="1"
     inkscape:current-layer="svg8" />
  <g
     fill="#bebebe"
     id="g6">
    <path
       opacity=".4"
       d="m5 0v2h-3v14h12v-14h-3v-2zm5 3l-1 5h3l-6 7 1-5h-3z"
       id="path2" />
    <path
       d="m2 6v10h12v-10h-4.6l-.4 2h3l-6 7 1-5h-3l3.428-4z"
       id="path4" />
  </g>
  <path
     style="fill:#7bcb00;stroke-width:0.0272109"
     d="M 2.0136054,10.993197 V 6 h 2.698095 C 7.2793287,6 7.4077448,6.0023 7.3673891,6.047619 7.3440661,6.07381 6.576068,6.9707483 5.6607276,8.0408163 l -1.6642552,1.9455783 1.4942941,0.00703 1.4942942,0.00703 -0.499015,2.494421 C 6.2115875,13.866809 5.9915921,14.99386 5.9971671,14.999435 6.008594,15.010861 12,8.0270389 12,8.0022922 12,7.9935485 11.328297,7.9863946 10.507327,7.9863946 H 9.0146528 L 9.2006868,7.0544218 C 9.3030057,6.5418367 9.3933094,6.094898 9.4013619,6.0612245 L 9.4160027,6 h 2.2851963 2.285196 v 4.993197 4.993198 H 8 2.0136054 Z"
     id="path839" />
</svg>
